<?xml version="1.0" standalone="yes"?>
<svg version="1.1" xmlns="http://www.w3.org/2000/svg"
                   xmlns:xlink="http://www.w3.org/1999/xlink"
                   xmlns:ev="http://www.w3.org/2001/xml-events"
                   width="230" height="230">
<path style="fill: rgba(0, 0, 0, 1); stroke: none;"
      d="M10 10L10 80L80 80L80 10L10 10M100 10L100 30L90 30L90 90L100 90L100
         100L90 100L90 110L100 110L100 120L80 120L80 110L70 110L70 100L80
         100L80 90L30 90L30 100L40 100L40 130L30 130L30 120L20 120L20
         90L10 90L10 140L20 140L20 130L30 130L30 140L80 140L80
         130L100 130L100 140L90 140L90 150L110 150L110
         160L90 160L90 200L100 200L100 170L120 170L120 190L130 190L130
         200L120 200L120 210L130 210L130 220L140 220L140 210L160
         210L160 220L170 220L170 180L180 180L180 170L200 170L200
         180L190 180L190 190L180 190L180 220L190 220L190 210L200
         210L200 220L210 220L210 210L200 210L200 180L210 180L210
         150L220 150L220 130L210 130L210 110L220 110L220 100L200
         100L200 90L150 90L150 100L130 100L130 90L110 90L110 80L120
         80L120 70L130 70L130 80L140 80L140 70L130 70L130 60L140
         60L140 50L130 50L130 60L120 60L120 50L110 50L110 60L120
         60L120 70L110 70L110 80L100 80L100 30L110 30L110 10L100
         10M150 10L150 80L220 80L220 10L150 10M70 20L70 70L20
         70L20 20L70 20M210 20L210 70L160 70L160 20L210 20M30
         30L30 60L60 60L60 30L30 30M120 30L120 40L140 40L140
         30L120 30M170 30L170 60L200 60L200 30L170 30M120 100L120
         110L130 110L130 120L120 120L120 130L130 130L130 150L140
         150L140 130L160 130L160 120L170 120L170 110L160 110L160
         100L190 100L190 110L200 110L200 120L190 120L190 110L180
         110L180 130L200 130L200 140L210 140L210 150L200 150L200
         160L190 160L190 140L180 140L180 150L170 150L170 160L160
         160L160 170L170 170L170 180L150 180L150 170L140 170L140
         180L130 180L130 170L120 170L120 160L130 160L130 150L110
         150L110 140L120 140L120 130L100 130L100 120L120 120L120
         110L100 110L100 100L120 100M70 110L70 120L80 120L80 130L60
         130L60 120L50 120L50 110L70 110M150 110L150 120L140 120L140
         110L150 110M160 130L160 150L170 150L170 130L160 130M10 150L10
         220L80 220L80 150L10 150M140 150L140 160L150 160L150 150L140
         150M70 160L70 210L20 210L20 160L70 160M30 170L30 200L60 200L60
         170L30 170M150 190L150 200L140 200L140 190L150 190M90 210L90
         220L100 220L100 210L90 210z"
/>
</svg>
